<?xml version="1.0" encoding="utf-8"?>
<!-- Generator: Adobe Illustrator 28.3.0, SVG Export Plug-In . SVG Version: 6.00 Build 0)  -->
<svg version="1.1" id="Layer_1" xmlns="http://www.w3.org/2000/svg" xmlns:xlink="http://www.w3.org/1999/xlink" x="0px" y="0px"
	 viewBox="0 0 400 407" style="enable-background:new 0 0 400 407;" xml:space="preserve">
<style type="text/css">
	.st0{fill:#F30605;}
</style>
<g id="Layer_2_00000008852376035723894940000009678212542186965690_">
	<g>
		<g>
			<path class="st0" d="M167.8,253.6l0.3,0.3l0.1,0.3l0.1,0.6l-0.1,0.4l-0.1,0.9l-0.2,0.6l-0.4,1.3l-0.3,0.8l-0.7,1.6l-0.4,0.9
				l-0.9,2l-0.6,1.1l-1.2,2.4l-0.7,1.3l-5.8,10.7l-4.1,6.7l-2.1,3.2l-4.4,6.2l-2.3,3l-4.8,5.9l-2.6,2.9l-8.8,9.8l-15.1,7.3l-6.4,3
				l-4.3,2l-2,0.9l-3.7,1.7l-1.6,0.7l-1.5,0.6l-0.7,0.2l-1.2,0.5l-0.5,0.2l-5.5,1.8l-2.6,0.5l-2.6,0.5l-1.2,0.1l-2.4,0.2h-1.1h-2.1
				l-1-0.1l-1.9-0.2l-0.8-0.2l-1.5-0.5l-0.6-0.3l-1.2-0.7l-0.4-0.4l-0.4-0.7v-0.5l0.1-0.3l0.4-0.5l0.3-0.3l0.8-0.7l0.6-0.4l3-2.3
				l1.8-1.5l0.8-0.7l3-2.9l1.3-1.6l1.3-1.7l0.6-0.9l1.2-1.9l0.6-1.1l1.3-2.2l0.7-1.2l1.4-2.6l0.7-1.5l2.6-5l1.7-3l0.8-1.3l1.7-2.6
				l0.9-1.2l1.9-2.3l1.1-1.1l2.2-2.2l1.3-1.1l2.7-2.3l1.6-1.2l3.3-2.5l1.9-1.4l4-2.8l2.3-1.6l4.1-2.7l2.5-1.6l1.2-0.7l4.5-2.7
				l2.3-1.2l2.3-1.2l1.2-0.6l2.6-1.2l1.4-0.6l2.9-1.3l1.6-0.7l3.4-1.4l1.9-0.8l7.2-2.9l2.2-0.9l1-0.4l2-0.8l0.9-0.3l1.7-0.6l0.7-0.3
				l1.4-0.5l0.5-0.2l1-0.3l0.3-0.1l0.5-0.1h0.1 M209,191.5l0.7,0.2l0.4,0.2l0.7,0.6l0.4,0.4l0.7,0.9l0.4,0.6l1.3,1.7l1.3,1.5
				l0.8,0.9l3.6,3.7l1.9,1.8l3.7,3.6l2,2.2l0.8,1.1l1.6,2.4l0.8,1.4l0.8,1.5l0.4,0.8l0.9,1.7l0.5,0.9l2.2,4.5l1.2,2.8l0.5,1.3
				l1.8,5.1l0.6,2.5l0.6,2.6l0.2,1.4l0.4,2.8l0.2,1.5l0.3,3.1l0.1,1.7l0.2,3.5l0.1,2v8.3l-0.2,5.4l-0.2,2.7l-0.6,5.3l-0.4,2.6
				l-0.9,5.1l-0.6,2.5l-1.2,4.8l-0.7,2.3l-1.5,4.5l-0.9,2.1l-1.8,4.2l-1,2L229,310l-1.2,1.7l-4.6,7l2.3,4.4l0.7,1.5l0.2,0.6l0.4,1.1
				l0.1,0.5l0.1,0.8v0.3l-0.2,0.5l-0.2,0.1l-0.5,0.2h-0.4l-0.8-0.2l-0.5-0.2l-1.1-0.5l-0.6-0.4l-1.4-0.8l-0.8-0.5l-3.2-2.4l-2.1-1.8
				l-1-1l-4-4.1l-1.9-2.4l-3.7-5l-1.7-2.8l-3.3-5.7l-1.5-3.1l-2.8-6.4l-1.3-3.3l-2.4-6.8l-1-3.5l-1.9-7.1l-0.7-3.6l-1.3-7.3
				l-0.4-3.7l-0.5-7.9l0.1-5.2l0.2-2.6l0.5-5.2l0.4-2.5l1-5l0.7-2.5l1.4-4.9l0.9-2.4l1.9-4.8l1.1-2.3l2.3-4.5l1.3-2.2l2.7-4.3
				l1.5-2.1l1.8-2.4l1.1-1.3l0.5-0.5l1-0.9l0.4-0.3l0.9-0.5l0.4-0.1l0.8-0.1 M143.9,276.7l-0.5,0.3l-0.3,0.2l-0.7,0.5L142,278
				l-0.9,0.8l-0.5,0.4l-2.2,1.9l-1.2,1.1l-2.5,2.3l-1.3,1.2l-2.5,2.5l-1.2,1.2l-2.3,2.4l-0.9,1l-0.9,1l-0.4,0.4l-0.7,0.8l-0.3,0.4
				l-0.5,0.7l-0.1,0.2l-0.2,0.4v0.1v0.6l0.1,0.2l0.2,0.3h0.2h0.4l0.3-0.2l0.7-0.4l0.4-0.3l1-0.8l0.6-0.5l1.3-1.2l0.8-0.8l1.7-1.7
				l1-1l2.2-2.2l1.3-1.3l4.3-4.5l1.2-1.3l0.5-0.6l0.9-1.1l0.4-0.5l0.7-0.9l0.3-0.4l0.5-0.7l0.1-0.3l0.2-0.5v-0.2v-0.2h-0.1
				 M211.8,239.9l-0.2,0.2l-0.1,0.2l-0.2,0.5l-0.1,0.4l-0.2,0.9l-0.1,0.6l-0.1,1l-0.1,0.9v0.6v2.6v1.6l0.1,3.4l0.1,1.9l0.2,4
				l0.1,2.1l0.6,8.6l0.4,4l0.4,3.9l0.2,1.7l0.4,3.2l0.2,1.3l0.3,1.4l0.1,0.6l0.2,1.2l0.1,0.5l0.4,1.7l0.2,0.4l0.4,0.6h0.2l0.3-0.4
				l0.1-0.5l0.2-1.3l0.1-1l0.1-2.3v-1.5v-3.2v-1.9l-0.1-4.1l-0.1-2.4l-0.4-8.3l-0.3-5.1l-0.2-2.3l-0.4-4.3l-0.2-1.8l-0.5-3.5
				l-0.2-1.4l-0.3-1.3l-0.1-0.6l-0.2-1l-0.1-0.4l-0.3-0.8l-0.1-0.3l-0.3-0.4l-0.1-0.1l-0.3-0.1 M258.3,152.2l4.5,0.3l2.2,0.4
				l4.4,0.9l2.1,0.7l4.5,1.8l3,1.6l1.5,0.9l3,2l1.5,1.1l2.9,2.4l1.4,1.3l2.9,2.7l1.4,1.5l2.8,3l1.4,1.6l2.7,3.3l1.3,1.7l2.5,3.5
				l1.2,1.8l4.7,7.6l2.1,4.1l4,8.2l1.6,4.2l1.6,4.3l0.7,2.1l1.3,4.3l0.6,2.2l1,4.3l0.4,2.2l0.7,4.3l0.2,2.1l1.2,10.8l-2.6,2.8
				l-1.8,2.1l-0.6,1.1v0.5l0.1,1l0.3,0.6l0.8,1.3l0.7,0.8l1.3,2.2l0.2,0.6v0.2v0.5l-0.1,0.1l-0.5,0.6l-0.4,0.1l-0.5,0.1h-0.3h-0.7
				h-0.4l-1-0.1l-0.6-0.1l-1.3-0.3l-0.8-0.2l-1.7-0.4l-1-0.2l-2.1-0.5l-1.2-0.3l-13.5-3.9l-8.4-3l-4-1.7l-8-3.5l-3.9-2l-7.8-4.2
				l-3.9-2.4l-8-5.4l-5-4l-2.4-2.3l-2.4-2.4l-1.2-1.3l-2.4-2.6l-1.2-1.4l-2.5-2.9l-1.3-1.6l-2.6-3.2l-1.6-1.7l-4-5.2l-2.9-3.7
				l-1.5-1.9l-2.9-3.7l-1.3-1.7l-1.3-1.6l-0.6-0.7l-1.2-1.4l-0.5-0.6l-3-3.6l-1.7-2.2l-0.7-0.9l-1.3-1.7l-0.4-0.6l-0.3-0.5l-0.1-0.2
				l-0.1-0.3v-0.1l0.5-1.4l0.7-1l0.5-0.4l1-0.8l0.5-0.3l1.1-0.4h0.4l1.1-0.5l1.1-0.8l0.7-0.5l1.5-1.2l0.8-0.7l1.7-1.5l0.9-0.8
				l5.7-4.7l4-2.7l2.1-1.1l4.2-2.1l2.2-0.9l4.4-1.6l2.2-0.6l4.5-1l2.3-0.2l4.5-0.4 M167.9,180.6l5.6,0.1l2.5,0.1l2.4,0.1l1.1,0.1
				l2.2,0.1l1,0.1l1.8,0.1l0.8,0.1l1.5,0.1l0.6,0.1l1,0.2l0.4,0.1l0.6,0.2l0.1,0.1l0.1,0.4v0.5v0.3l-0.2,1.5l-0.3,1l-0.6,2.2
				l-0.4,1.3l-0.9,2.7l-0.5,1.5l-2.3,6.3l-1.3,3.1l-1.3,3.1l-0.7,1.5l-1.3,2.9l-0.7,1.2l-3.4,5.4l-2.7,3.5l-1.6,1.6l-3.2,3.2
				l-1.8,1.5l-3.7,3l-2,1.4l-4.1,2.7l-2.2,1.2l-4.5,2.3l-2.4,1l-4.8,1.9l-2.5,0.8l-5.1,1.5l-2.6,0.6l-2.4,0.5l-1.4,0.2l-2.8,0.4
				l-1.5,0.2l-6.2,0.7l-3.1,0.2l-3.1,0.2l-1.5,0.1l-2.9,0.1h-1.3h-2.5l-1.1-0.1l-2-0.1l-0.7-0.1l-0.9-0.1l-0.8-0.1l-0.5-0.1
				l-2.2-0.4l-1.4-0.3l-3-0.6l-1.6-0.3l-3.3-0.7l-1.7-0.3l-5.2-0.9l-3.4-0.6l-1.6-0.2l-3-0.4l-1.2-0.1l-1.2-0.1h-0.5h-0.9h-0.3
				l-2.5-0.1l-1.2-0.2l-0.5-0.2l-0.9-0.4l-0.4-0.3l-0.7-0.7l-0.3-0.5l-1-2.2l-0.1-0.8l0.1-0.5l0.2-1l0.2-0.6l0.5-1.4l0.4-0.9
				l0.9-1.9l0.6-1.1l1.3-2.4l0.8-1.5l1.8-3.2l1.1-1.9l3.2-5.5l2.1-3.3l1-1.5l2.1-2.9l1-1.3l2.1-2.5l1-1.1l2.1-2.2l1.1-1l2.2-1.9
				l1.2-0.9l2.3-1.7l1.2-0.8l2.5-1.5l1.3-0.7l7.6-3.3l2.6-0.9l1.4-0.4l2.8-0.8l1.5-0.3l3-0.6l1.7-0.3l3.4-0.5l1.9-0.2l3.9-0.4
				l2.1-0.2l4.4-0.4l2.4-0.2l8-0.4l5.9-0.2l3.1-0.1l6.1-0.1h3.1h6.1 M161.2,209.4l-0.6,0.1l-0.5,0.3l-1.1,0.7l-0.8,0.5l-1.7,1.2
				l-1,0.8l-8.2,6.4l-5.5,3.7l-2.8,1.6l-5.6,3l-2.8,1.3l-5.7,2.4l-2.9,1l-2.2,0.7l-1.3,0.4l-0.6,0.1l-2.2,0.4l-1.2,0.1h-1.2h-0.7
				l-1.5-0.1l-0.9-0.1l-1.8-0.1l-1.1-0.1l-2.3-0.2l-1.4-0.1L100,233l-2-0.2l-0.8-0.1l-1.5-0.1h-0.6H94h-0.4l-1.5,0.2l-0.5,0.2
				l-0.9,0.5l-0.5,0.4l-1.4,1.6l-0.5,0.9v0.3l0.1,0.2l0.2,0.1l0.5,0.2l0.4,0.1l0.9,0.1h0.5l1.2,0.1h0.7h3h1.8l3.7-0.1l2-0.1l8.2-0.6
				l3.8-0.5l3.7-0.5l1.6-0.3l1.5-0.3l0.7-0.1l1.3-0.3l0.5-0.1l9.2-2.9l5.5-2.3l2.5-1.4l4.9-2.9l2.3-1.7l4.4-3.6l2.1-2.1l2.7-2.8
				l1.4-1.6l0.5-0.7l0.9-1.2l0.3-0.5l0.4-0.8v-0.2l-0.1-0.4 M223.2,229.4l-0.6,0.7l-0.2,1v0.6v1.2l0.1,0.5l0.3,1l0.3,0.3l0.5,0.2
				l0.2-0.2l0.5-0.6l0.2-0.5l0.3-1l0.1-0.5V231l-0.2-0.4l-0.6-0.9l-0.5-0.4 M254.3,215.5l0.2,0.3l0.5,0.8l0.5,0.6l1.3,1.3l0.9,0.8
				l2.1,1.8l1.3,1l2.8,2.2l1.7,1.2l2.1,1.6l1,0.7l2,1.3l0.9,0.5l1.6,1l0.6,0.3l1,0.4h0.2l0.5-0.2v-0.3l-0.1-0.2L275,230l-0.3-0.4
				l-0.8-0.8l-0.5-0.5l-1.1-1l-0.7-0.6l-1.5-1.2l-0.9-0.7l-1.9-1.4l-1.1-0.8L264,221l-1.2-0.9l-2.2-1.6l-1.3-0.9l-0.6-0.4l-1.1-0.7
				l-0.5-0.3l-0.9-0.5l-0.3-0.2l-0.6-0.3l-0.2-0.1l-0.4-0.1h-0.1 M237.3,184.4l-0.6,0.1l-0.2,0.1l-0.2,0.3l0.1,0.2l0.4,0.5l0.6,0.6
				l0.5,0.4l1.1,1l0.7,0.6l1.4,1.2l0.8,0.7l1.7,1.5l1,0.8l2,1.7l1.1,0.9l4.5,3.8l2.5,2.1l4.9,4l2.2,1.8l2.1,1.7l1,0.8l1.9,1.5
				l0.9,0.7l1.6,1.2l0.7,0.5l1.3,1l0.5,0.4l0.9,0.6l0.3,0.2l0.5,0.2h0.1l0.6-0.7l0.2-0.7v-0.4l-0.1-0.9l-0.1-0.5l-0.4-1l-0.3-0.6
				l-1.3-2.4l-1-1.4l-2.1-2.8l-1.3-1.5l-2.7-3l-1.5-1.5l-3.1-2.9l-1.6-1.4l-3.3-2.6l-1.7-1.1l-3.3-2.1l-1.6-0.8l-4.4-1.8l-3-0.9
				l-1.3-0.2l-1.2-0.2h-0.5h-1 M147.3,197.8l-0.6,0.1l-1.2,0.3l-0.7,0.2l-1.4,0.4l-0.8,0.3l-3.2,1.2l-1.8,0.7l-3.6,1.5l-1.8,0.8
				l-3.6,1.6l-1.7,0.8l-3.2,1.6l-1.3,0.7l-1.2,0.7l-0.5,0.3l-1,0.6l-0.4,0.3l-0.7,0.5l-0.2,0.2l-0.3,0.4v0.2l0.1,0.3l0.1,0.1
				l0.3,0.1h0.3h0.6l0.4-0.1l0.9-0.2l0.6-0.2l1.2-0.4l0.7-0.2l1.6-0.5l0.9-0.3l1.9-0.7l1.1-0.4l2.3-0.9l1.3-0.5l7.4-3.3l2.1-1.1
				l1-0.5l1.8-1l0.8-0.5l1.4-0.9l0.6-0.4l1-0.8l0.3-0.3l0.4-0.6v-0.2l-0.1-0.3l-0.3-0.1h-1 M267.6,168.5l-0.1,0.2l0.1,0.2l0.4,0.5
				l0.4,0.4l0.5,0.5l0.6,0.5l0.4,0.3l1.7,1.3l1.1,0.8l2.4,1.7l1.4,1l2.9,2l1.5,1l2.5,1.6l1.1,0.7l2.1,1.3l0.9,0.5l1.6,0.9l0.7,0.3
				l1.2,0.6l0.5,0.2l0.8,0.2h0.3l0.5-0.1l0.1-0.2l0.1-0.5l-0.1-0.4l-0.3-0.8l-0.3-0.5l-0.8-1l-0.8-0.9l-0.5-0.5l-2.4-2.2l-1.5-1.2
				l-3.1-2.3l-1.5-1l-1.5-1l-0.7-0.4l-1.5-0.8l-0.6-0.3l-1.4-0.7l-1.2-0.4l-0.6-0.2l-2.6-0.8l-1.1-0.2l-2.1-0.3l-0.8-0.1
				 M225.3,177.4l-1.8,0.3l-0.8,0.4l-0.2,0.3l-0.3,0.7l0.1,0.4l0.3,0.8l0.4,0.4l0.6,0.4l0.3,0.1l0.7,0.1h0.4l0.8-0.2l0.4-0.2
				l0.7-0.5l0.3-0.3l1-1.3l0.2-0.6l-0.1-0.2l-0.5-0.4l-0.5-0.1l-1.1-0.2 M52,151.7l3.5,0.1l1.6,0.2l3.2,0.4l1.5,0.3l1.8,0.4l1.5,0.3
				l0.9,0.2l1.9,0.4l1.1,0.2l2.2,0.5l1.2,0.2l4.9,1.1l2.6,0.6l5.3,1.1l2.6,0.6l13.8,3.2l4.3,1.1l2,0.5l3.9,1.1l1.8,0.5l3.4,1
				l1.4,0.5l2.7,0.9l1,0.4l1.8,0.8l0.6,0.3l0.5,0.3l0.1,0.1l0.2,0.2v0.1l-0.5,0.9l-0.8,0.6l-0.6,0.3l-1.4,0.6l-0.9,0.3l-1.9,0.6
				l-1.2,0.3l-2.5,0.6l-1.5,0.3l-3.1,0.6l-1.7,0.3l-3.6,0.6l-2,0.3l-4.1,0.6l-2.3,0.3l-3.3,0.4l-1.9,0.2l-3.8,0.3l-2,0.1l-8.5,0.3
				h-4.4H69l-2.1-0.1l-4.2-0.1l-2-0.1l-3.9-0.2l-1.8-0.2l-3.4-0.4l-1.5-0.2l-4.2-0.7l-3.3-0.6l-1.8-0.4l-3.6-0.7l-1.8-0.4l-3.5-0.8
				l-1.5-0.4l-5.5-1.2l-3-0.6l-1.3-0.2l-2.4-0.2h-1h-2l-0.9,0.1l-2.7,0.3h-1.2l-0.4-0.1l-0.8-0.4l-0.3,0.2l-0.7-0.8L7.8,169
				l-0.9-1.6l-0.4-1l-0.1-0.5L6.3,165l0.1-0.4l0.2-0.8l0.2-0.4l0.5-0.7l0.4-0.3l0.8-0.7l0.6-0.3l1.2-0.6l0.7-0.3l1.5-0.6l0.9-0.3
				l7.3-2.4l4.7-1.4l2.3-0.6l4.5-1.1l2.2-0.4l4.3-0.8l2-0.3l4-0.5l1.9-0.1l3.8-0.2 M194.7,35l1.1,0.9l0.7,0.7l1.5,1.5l0.8,0.9l1.8,2
				l0.9,1.1l3.9,4.7l1.9,2.5l1.9,2.4l0.9,1.2l1.7,2.4l0.7,1.1l3,4.9l1.8,3.6l0.9,1.9l1.6,3.9l0.7,2l1.4,4.1l0.6,2.1l1.2,4.2l0.5,2.1
				l0.9,4.3l0.3,2.1l0.6,4.3l0.2,2.1l0.3,4.2v2l-0.2,5.1l-0.3,3.2l-0.2,1.6l-0.6,3.2l-0.4,1.6l-0.9,3.4l-0.6,1.8l-1.3,3.6l-0.8,2
				l-1.8,4.1l-1.1,2.3l-2.3,4.8l-1.4,2.7l-1.4,2.7l-0.8,1.5l-1.6,3l-0.8,1.6l-2.9,5.5l-1.8,3.5l-0.8,1.6l-1.5,3l-0.5,1.1l-0.5,1.1
				l-0.2,0.4l-0.4,0.8l-0.1,0.3l-1.8,3.1l-0.7,0.9l-0.4,0.4l-0.7,0.6l-0.3,0.2l-1.6,0.8l-0.8,0.2l-1.6,0.3h-0.7l-1.4-0.2l-0.7-0.3
				l-1.3-0.7l-0.6-0.5l-1.8-1.9l-1.4-2l-0.8-1.2l-1.7-2.6l-0.9-1.5l-1.8-3.1l-0.9-1.7l-3.8-7l-1.7-3.5l-1.6-3.5l-0.7-1.6l-1.4-3.2
				l-0.6-1.4l-1.4-3.7l-0.8-2.1l-0.3-0.9l-0.6-1.7l-0.2-0.8l-0.4-1.5l-0.1-0.7l-0.4-2.9l-0.1-1.8l-0.1-1.9v-1.1v-2.4v-1.4l0.2-6.4
				l0.4-4.4l0.3-2.2l0.7-4.5l0.4-2.3l0.9-4.6l0.6-2.4l2.5-9.5l1.6-4.8l3.5-9.6l2.1-4.7l2-4.3l1.5-3.1l0.8-1.5l3.3-6.2l1.6-2.8
				l1.5-2.7l0.7-1.2l1.4-2.2l0.6-0.9l1.1-1.5l0.4-0.5l0.4-0.4l0.1-0.1l0.3-0.2h0.1 M108.1,114.7l4,0.3l2,0.3l3.9,0.8l1.9,0.5
				l3.8,1.2l1.9,0.8l3.8,1.6l1.9,1l3.8,2.2l2.8,1.9l1.5,1.1l3,2.4l1.5,1.3l3.1,2.7l1.5,1.4l6,6l2.6,3.1l2.6,3l1.1,1.5l2.2,2.9
				l0.9,1.4l4.3,7.1l2.6,4.7l1.1,2.1l1,2l0.4,0.9l0.8,1.7l0.3,0.7l0.4,1.2l0.1,0.4l0.1,0.7l-0.1,0.1l-0.6,0.4h-0.6H173h-0.5l-1-0.1
				l-0.7-0.1l-1.4-0.2l-0.9-0.1l-1.9-0.3l-1.1-0.2l-2.4-0.5l-1.4-0.3l-3-0.6l-1.8-0.4l-7.3-1.8l-4.9-1.4l-2.5-0.8l-4.9-1.7l-2.4-0.9
				l-4.9-2l-2.4-1.1l-4.8-2.2l-2.3-1.2l-4.5-2.4l-2.2-1.2l-4.2-2.5l-2-1.3l-3.9-2.6l-1.8-1.3l-2.5-2l-2.1-1.5l-1-0.9l-3.9-3.7
				l-1.9-1.9l-1.9-1.9l-0.8-0.9l-1.6-1.8l-0.7-0.8l-1.3-1.5l-0.5-0.6l-0.9-1.2l-0.2-0.4l-0.8-0.9l-0.8-0.5l-0.6-0.2l-1.3-0.4
				l-0.9-0.2l-2-0.3l-1.3-0.2l-3.6-0.5l-2-0.2l-0.6-0.2l-1-0.4l-0.2-0.2l-0.2-0.4l0.2-0.2l0.7-0.5l0.7-0.3l1.6-0.6l1.1-0.4l2.5-0.8
				l1.6-0.5l3.5-1l2.1-0.6l7.2-1.8l4.6-0.9l2.2-0.3l4.4-0.5l2.1-0.1l4.2-0.1 M196.2,91.8l-0.3,0.3l-0.2,0.3l-0.7,1.3l-0.3,1L194,97
				l-0.3,1.4l-0.7,3l-0.3,1.7l-0.6,3.5l-0.3,1.8l-0.5,3.7l-0.2,1.8l-0.4,3.7l-0.1,1.8l-0.2,3.4v1.5l0.1,3l0.2,2.4l0.1,1.3l0.6,5.6
				l0.4,2.9l0.8,5.9l0.5,2.6l0.5,2.5l0.2,1.1l0.5,2.1l0.2,0.9l0.3,1.2l0.2,0.5l0.3,0.8l0.2,0.2l0.3,0.4h0.2h0.3l0.2-0.2l0.4-0.7
				l0.1-0.7v-0.5l-0.1-1l-0.1-0.6l-0.2-1.3l-0.2-0.8l-0.6-4l-0.1-1.6v-1v-2.1V142l0.1-2.7l0.1-1.6l0.2-3.4l0.1-2l0.3-4.2l0.2-2.5
				l0.2-2.5l0.1-1.4l0.2-2.8l0.1-1.5l0.4-5.5l0.2-3.4l0.1-1.5l0.1-3v-1.3v-2.6V99l-0.1-2.1l-0.1-0.9l-0.2-1.6l-0.1-0.6l-0.3-1.1
				l-0.2-0.4l-0.4-0.6l-0.2-0.1 M301,55.5h0.8l1.5,0.1l0.6,0.1l2,0.4l0.8,0.3l0.1,0.2l0.1,0.4l-0.2,0.3l-0.5,0.6l-0.4,0.5l-0.9,1.6
				l-0.2,0.8l-0.1,0.5l-0.2,1.1l-0.1,0.7l-0.2,1.4l-0.1,0.8l-0.2,1.8l-0.1,1l-0.2,2.2l-0.1,1.3l-0.2,2.6l-0.1,1.5l-0.3,4.8l-0.2,3
				l-0.1,1.4l-0.5,5.4l-0.3,2.3L301,97l-0.4,1.9l-0.9,3.7l-0.6,1.6l-1.2,3.1l-0.8,1.4l-1.6,2.8l-1,1.3l-2,2.6l-1.2,1.3l-2.5,2.6
				l-1.5,1.3l-5.6,4.8l-4,3.2l-2.2,1.5l-4.4,3.1l-2.3,1.5l-4.6,2.9l-2.4,1.4l-4.8,2.7l-2.5,1.3l-4.9,2.5l-2.5,1.1l-5,2.2l-2.4,1
				l-4.9,1.8l-2.4,0.8l-3.2,1l-1.3,0.4l-2.4,0.7l-1,0.2l-1.8,0.4l-0.7,0.1l-1.3,0.1l-0.5-0.1l-0.8-0.3l-0.3-0.3l-0.5-0.6l-0.1-0.5
				l-0.2-1v-0.7l-0.1-1.4v-0.9l0.4-4l0.6-2.5l0.6-1.2l1.3-2.5l0.9-1.4l2-2.9l1.4-1.6l3.1-3.9l1.8-2.3l0.8-1l1.5-2l0.6-0.9l1.2-1.8
				l0.5-0.8l1.8-3l0.6-1.4l1.1-2.7l0.4-1.4l3.1-8.8l2.6-5.8l1.5-2.8l3.2-5.6l1.8-2.7l3.7-5.3l2-2.5l4.1-4.8l2.1-2.2l4.4-4.1l2.2-1.8
				l4.5-3.4l2.3-1.3l4.5-2.5l2.2-0.8l4.9-1.4l3.7-0.7l1.9-0.2l3.8-0.3h1.7 M294.9,85.6l-0.4,0.1l-0.2,0.2l-0.3,0.5l-0.3,0.5
				l-0.2,0.4l-0.8,1.6l-0.4,1.1l-0.9,2.4l-0.5,1.3l-1,2.8l-0.5,1.4l-1,2.9l-0.5,1.4l-0.9,2.7l-0.4,1.2l-0.7,2.2l-0.2,0.8l-0.2,0.8
				l-0.1,0.3l-0.1,0.5v0.1v1l0.1,0.3l0.2,0.5h0.2l0.4-0.1l0.2-0.2l0.5-0.5l0.3-0.5l0.6-1l0.3-0.7l0.7-1.4l0.4-0.9l0.8-1.9l0.4-1.1
				l0.8-2.2l0.4-1.2l1.2-3.8l0.7-2.3l0.3-1l0.5-2l0.2-0.9l0.4-1.6l0.1-0.6l0.2-1.2V87v-0.8l-0.1-0.2L294.9,85.6 M194.9,47.4
				l-0.8,0.2l-0.3,0.4l-0.1,0.4l-0.2,0.8l-0.1,0.6l-0.1,1.3V52v1.4l0.1,0.5l0.2,1l0.1,0.4l0.2,0.6l0.1,0.2l0.3,0.2h0.2l0.3-0.1
				L195,56l0.3-0.5l0.1-0.4l0.3-0.9l0.1-0.6l0.2-1.2l0.1-0.8l0.1-2l-0.1-1l-0.1-0.3l-0.2-0.5l-0.2-0.1l-0.4-0.2L194.9,47.4
				L194.9,47.4z"/>
		</g>
	</g>
</g>
</svg>
